<svg width="163" height="96" xmlns="http://www.w3.org/2000/svg" xmlns:xlink="http://www.w3.org/1999/xlink" overflow="hidden"><defs><clipPath id="clip0"><path d="M0 0 163 0 163 96 0 96Z" fill-rule="evenodd" clip-rule="evenodd"/></clipPath></defs><g clip-path="url(#clip0)"><rect x="0" y="0" width="163" height="95.9019" fill="#FFFFFF" transform="scale(1 1.00102)"/><rect x="0" y="0" width="163" height="95.9019" fill="#1D1D1B" transform="scale(1 1.00102)"/><path d="M119.314-34.4109C119.065-31.5356 118.728-29.4987 118.299-28.1676 117.856-26.8195 117.068-25.5053 115.967-24.2628 113.912-21.9676 110.93-20.8 107.109-20.8 103.204-20.8 100.373-21.8324 98.6986-23.8569 97.039-25.8783 96.6068-29.0215 96.9765-33.2917L97.9672-44.7787 94.7958-44.7787 95.0883-48.1518 103.354-48.1518 103.079-44.7787 102.172-34.5088C101.947-31.9426 101.942-30.0538 102.089-28.8961 102.217-27.8055 102.585-26.8908 103.157-26.191 104.261-24.8388 105.786-24.179 107.811-24.179 109.762-24.179 111.371-24.7883 112.738-26.0619 114.011-27.2363 114.783-29.7754 115.12-33.6117L116.113-45.0857C116.113-45.0857 116.375-48.1518 119.711-48.1518L120.505-48.1518ZM62.627-25.0729C63.0192-24.4443 63.6399-24.1394 64.5365-24.1394 67.4765-24.1394 67.3684-21.3193 67.3684-21.3193 67.3684-21.3193 65.1152-20.8105 63.6181-20.8105 61.1856-20.8105 59.4096-21.4722 58.3542-22.7845 57.3048-24.077 56.9008-26.0885 57.1381-28.7712L58.8632-48.6858 64.0607-49.9454 63.6088-44.7771 67.5206-44.7771 67.2324-41.4539 63.3246-41.4539 62.1782-28.2395C62.0546-26.8212 62.2068-25.7597 62.627-25.0729ZM52.0805-46.4775C50.6774-46.4775 49.6375-47.6165 49.7623-49.0208 49.8885-50.4231 51.1184-51.5626 52.5235-51.5626 53.9254-51.5626 54.9695-50.4231 54.8402-49.0208 54.726-47.6165 53.483-46.4775 52.0805-46.4775ZM52.2971-20.8171C52.2971-20.8171 47.1868-20.5627 47.6361-25.7654L48.9888-41.3545 46.3044-41.3545 46.602-44.7771 54.3737-44.7771ZM150.862-83.1455 147.442-95.4999 27.6412-64.2957C27.4428-64.2431 27.0932-64.1178 26.8688-63.9674 26.6153-63.7987 26.4164-63.587 26.245-63.3591L0.151296-28.8274C-0.144281-28.4373 0.00743392-28.0319 0.482158-27.9299L28.1954-21.94C25.7723-22.847 23.9557-24.1649 23.0209-25.268 20.5473-28.2026 19.4689-32.2418 20.0642-36.5473 21.5742-47.4838 29.4114-52.3826 36.6622-52.3826 40.1241-52.3826 43.4018-51.8108 45.9834-50.3924L45.5611-45.5274 41.9899-45.5274 42.153-47.4078C40.8457-48.2222 36.1875-48.9611 32.3457-47.3897 27.8344-45.3147 25.8917-39.9466 25.6383-36.3407 25.4621-33.77 25.8226-30.4061 27.6226-27.972 29.43-25.5245 34.4915-23.6534 40.4498-25.6546 43.0984-26.5854 44.2802-23.8413 44.2802-23.8413L44.006-23.6872C40.0675-21.3448 36.2991-20.6721 33.0402-20.8932L71.8989-12.4948 77.3181-22.4198 71.2698-41.3545 68.7542-41.3545 69.0514-44.7771 75.4986-44.7771 80.6778-28.5631 87.8511-41.6917C87.8511-41.6917 89.0781-44.7771 93.0032-44.7771L94.3157-44.7771 76.2314-12.563C76.0471-12.2336 75.8652-11.9355 75.6539-11.6836L129.348-0.0780305 129.687-0.00314639C129.885 0.0380713 130.148-0.330895 130.271-0.804846L150.878-81.4259C150.936-81.6497 150.999-81.9321 151-82.2265 151.001-82.5555 150.932-82.8964 150.862-83.1455" stroke="#1D1D1B" stroke-width="1.00003" stroke-miterlimit="8" fill="#FFFFFF" fill-rule="evenodd" transform="matrix(1 0 -0 1.00102 5.49999 96.5001)"/></g></svg>