<svg width="96" height="96" xmlns="http://www.w3.org/2000/svg" xmlns:xlink="http://www.w3.org/1999/xlink" overflow="hidden"><defs><clipPath id="clip0"><path d="M0 0 96 0 96 96 0 96Z" fill-rule="evenodd" clip-rule="evenodd"/></clipPath></defs><g clip-path="url(#clip0)"><path d="M0 0 96 0 96 96 0 96Z" fill="#FFFFFF" fill-rule="evenodd" fill-opacity="0"/><path d="M28.0001 39.0153 5.20927 44.9142C5.17615 44.9224 5.11286 44.945 5.07383 44.9708 5.03428 44.9968 4.99968 45.0307 4.96477 45.0769L0.0177204 51.581C-0.000843828 51.6056 0.000316435 51.6285 0 51.6489-0.000843828 51.6867 0.0304833 51.7229 0.0605446 51.7298L5.01413 52.8033 5.30483 52.9036 6.22903 53.102 6.86296 53.1901 13.0818 54.5256 13.6413 54.6941 14.3575 54.8478 14.8467 54.9099 24.567 57 28.0001 39.0153" fill="#FFFFFF" fill-rule="evenodd"/><path d="M0 59.0545 18.3704 32.1091 96 10 80 86 0 59.0545Z" fill="#C0165F" fill-rule="evenodd"/></g></svg>